<?xml version="1.0" encoding="utf-8"?>
<!DOCTYPE svg PUBLIC "-//W3C//DTD SVG 1.1//EN" "http://www.w3.org/Graphics/SVG/1.1/DTD/svg11.dtd">
<svg version="1.1" xmlns="http://www.w3.org/2000/svg" xmlns:xlink="http://www.w3.org/1999/xlink" x="0px" y="0px" width="100px" height="100px" viewBox="0 0 100 100" enable-background="new 0 0 100 100" xml:space="preserve">
	<defs>
		<style>
			#Wings>g {
				animation-timing-function: ease-in-out;
				animation-direction: alternate;
			}
			@keyframes top_left_animation {
				  0% { transform: rotate(-20deg); }
				100% { transform: rotate(20deg); }
			}
			#Top_Left_Wing {
				animation: top_left_animation .20s infinite;
				transform-origin: 100% 100%;
			}
			@keyframes top_right_animation {
				  0% { transform: rotate(20deg); }
				100% { transform: rotate(-20deg); }
			}
			#Top_Right_Wing {
				animation: top_right_animation .20s infinite;
				transform-origin: 0% 100%;
			}
			@keyframes bottom_left_animation {
				  0% { transform: rotate(-10deg); }
				100% { transform: rotate(35deg); }
			}
			#Bottom_Left_Wing {
				animation: bottom_left_animation .20s infinite;
				transform-origin: 100% 100%;
			}
			@keyframes bottom_right_animation {
				  0% { transform: rotate(10deg); }
				100% { transform: rotate(-35deg); }
			}
			#Bottom_Right_Wing {
				animation: bottom_right_animation .20s infinite;
				transform-origin: 0% 100%;
			}
		</style>
	</defs>
	<g id="Bee">
		<circle cx="49.87" cy="34.207" r="12.456"/>
		<path fill="#FFFF00" stroke="#000000" d="M49.871,58.731c-7.883,0-14.275,2.257-14.275,12.719c0,10.463,6.392,25.177,14.275,25.177 c7.885,0,14.275-14.714,14.275-25.177C64.146,60.988,57.756,58.731,49.871,58.731z"/>
		<path stroke="#000000" d="M61.679,80.325c-0.385,1.509-1.589,3.844-1.589,3.844s-3.178,3.358-10.31,3.358 c-7.132,0-10.12-3.358-10.12-3.358s-0.964-1.538-1.542-3.795s-0.771-3.796-0.771-3.796s4.044,2.677,12.14,2.677 s12.915-2.68,12.915-2.68S62.064,78.816,61.679,80.325z"/>
		<path stroke="#000000" d="M50.001,71.955c-10.075,0-13.043-1.864-13.043-1.864s-0.081-1.086,0.455-3.373s1.654-3.376,1.654-3.376 s3.785,2.19,10.741,2.19s10.8-2.19,10.8-2.19s0.778,0.341,1.605,3.114c0.827,2.774,0.438,3.31,0.438,3.31 S60.076,71.955,50.001,71.955z"/>
		<circle cx="49.74" cy="53.025" r="10.123"/>
		<g>
			<path d="M45.199,24.867h-3.115c0-9.445-10.362-17.129-23.099-17.129V4.624C33.439,4.624,45.199,13.705,45.199,24.867 L45.199,24.867z"/>
		</g>
		<g>
			<path d="M57.917,25.775h-3.115c0-11.592,11.932-21.022,26.601-21.022v3.115C68.452,7.867,57.917,15.901,57.917,25.775 L57.917,25.775z"/>
		</g>
		<circle cx="21.321" cy="6.57" r="2.985"/>
		<circle cx="79.328" cy="6.31" r="2.853"/>
	</g>
	<g id="Wings">
		<g id="Bottom_Right_Wing">
			<g>
				<path fill="#FFFFFF" fill-opacity="0.3" stroke="#000000" d="M51.764,53.333c0.563-1.919,3.014-0.92,6.541-1.125 c3.584-0.208,6.023,1.663,12.084,3.25c7,1.833,13.131,0.067,17.313,1.979c10.208,4.667,4.396,3.916-0.063,9.375 c-2.249,2.754-4.223,2.862-11.938,1.438c-4.063-0.75-5.625-2.75-11.25-4.938c-2.299-0.895-3.462-3.266-8.813-4.563 C50.139,57.417,50.889,56.313,51.764,53.333z"/>
			</g>
			<g>
				<line stroke="#000000" x1="61.764" y1="61.875" x2="63.014" y2="59.125"/>
				<path fill="none" stroke="#000000" d="M51.764,53.333c0,0,20.375,4.792,27.125,9.292s7,4.25,9.375,3.375"/>
				<path fill="none" stroke="#000000" d="M77.639,56.375c0,0,5.625,5.875,5,8.625"/>
				<path fill="none" stroke="#000000" d="M73.514,59.75c0,0,1.416,3.75,2.791,5.625"/>
				<path fill="none" stroke="#000000" d="M82.68,69.125c0,0-8.791-7.125-15.541-4.625"/>
				<path fill="none" stroke="#000000" d="M51.139,55.125c0,0,20.625,5.25,19.5,8.625"/>
				<path fill="none" stroke="#000000" d="M80.732,60.141c0,0,7.719,6.297,7.844,3.297s-6.453-7.344-6.328-6.969"/>
			</g>
		</g>
		<g id="Bottom_Left_Wing">
			<g>
				<path fill="#FFFFFF" fill-opacity="0.3" stroke="#000000" d="M49.75,53.333c-0.563-1.919-3.014-0.92-6.542-1.125 c-3.583-0.208-6.023,1.663-12.083,3.25c-7,1.833-13.13,0.067-17.313,1.979c-10.208,4.667-4.396,3.916,0.063,9.375 c2.249,2.754,4.222,2.862,11.938,1.438c4.063-0.75,5.625-2.75,11.25-4.938c2.299-0.895,3.462-3.266,8.813-4.563 C51.375,57.417,50.625,56.313,49.75,53.333z"/>
			</g>
			<g>
				<line stroke="#000000" x1="39.75" y1="61.875" x2="38.5" y2="59.125"/>
				<path fill="none" stroke="#000000" d="M49.75,53.333c0,0-20.375,4.792-27.125,9.292s-7,4.25-9.375,3.375"/>
				<path fill="none" stroke="#000000" d="M23.875,56.375c0,0-5.625,5.875-5,8.625"/>
				<path fill="none" stroke="#000000" d="M28,59.75c0,0-1.417,3.75-2.792,5.625"/>
				<path fill="none" stroke="#000000" d="M18.833,69.125c0,0,8.792-7.125,15.542-4.625"/>
				<path fill="none" stroke="#000000" d="M50.375,55.125c0,0-20.625,5.25-19.5,8.625"/>
				<path fill="none" stroke="#000000" d="M20.781,60.141c0,0-7.719,6.297-7.844,3.297s6.453-7.344,6.328-6.969"/>
			</g>
		</g>
		<g id="Top_Right_Wing">
			<g>
				<path fill="#F2F2F2" fill-opacity="0.3" stroke="#000000" d="M51.322,54.416c-0.992-0.561,5.805-4.837,12.834-10.166 c4.562-3.458,8.944-8.334,13.166-10.583c8.917-4.75,24.667-3.75,18.584,3.833c0,0-3.092,8.069-6.5,10.417 c-3.75,2.583-11.239,0.919-21.334,4.333C62.405,54.166,53.239,55.5,51.322,54.416z"/>
			</g>
			<g>
				<line fill="none" stroke="#000000" x1="79.114" y1="32.875" x2="74.489" y2="42.125"/>
				<path fill="none" stroke="#000000" d="M77.031,36.875c0,0,25.083-2.833-16.417,9.917"/>
				<path fill="none" stroke="#000000" d="M82.447,36.583c0,0,8.167-5.208-0.958-4.583"/>
				<path fill="none" stroke="#000000" d="M82.364,39.125c0,0,3.667-2.625,7.167,0.25s3.936,2.876,5.791-0.542"/>
				<path fill="none" stroke="#000000" d="M96.906,33.583c0,0-3.295,3.795-10.459,4.458"/>
				<path fill="none" stroke="#000000" d="M78.406,40.792c0,0,1.681,0.911,3.134,2.102c1.982,1.625,4.381,4.595,2.866,6.398"/>
				<path fill="none" stroke="#000000" d="M89.531,39.375c-1.438,0.438,0.348,1.978,0.602,3.079s-1.025,1.762-8.593,0.44"/>
				<path fill="none" stroke="#000000" d="M88.281,43.667c1.375,3,3.833,0.542,4.333,0.667"/>
				<path fill="none" stroke="#000000" d="M54.239,51.542c0,0,43.25-16.25,10.75,1.625"/>
				<path fill="none" stroke="#000000" d="M81.406,49.375c0,0,0.291-7.458-5.209-4.458"/>
				<path fill="none" stroke="#000000" d="M67.739,44.042c0.125,0.5,0.875,1,0.25,2.75"/>
			</g>
		</g>
		<g id="Top_Left_Wing">
			<g>
				<path fill="#F2F2F2" fill-opacity="0.3" stroke="#000000" d="M49.583,54.416c0.993-0.561-5.804-4.837-12.833-10.166 c-4.562-3.458-8.944-8.334-13.167-10.583C14.667,28.917-1.083,29.917,5,37.5c0,0,3.092,8.069,6.5,10.417 c3.75,2.583,11.239,0.919,21.333,4.333C38.5,54.166,47.667,55.5,49.583,54.416z"/>
			</g>
			<g>
				<line fill="none" stroke="#000000" x1="21.792" y1="32.875" x2="26.417" y2="42.125"/>
				<path fill="none" stroke="#000000" d="M23.875,36.875c0,0-25.083-2.833,16.417,9.917"/>
				<path fill="none" stroke="#000000" d="M18.458,36.583c0,0-8.167-5.208,0.958-4.583"/>
				<path fill="none" stroke="#000000" d="M18.542,39.125c0,0-3.667-2.625-7.167,0.25s-3.936,2.876-5.792-0.542"/>
				<path fill="none" stroke="#000000" d="M4,33.583c0,0,3.294,3.795,10.458,4.458"/>
				<path fill="none" stroke="#000000" d="M22.5,40.792c0,0-1.681,0.911-3.134,2.102c-1.982,1.625-4.38,4.595-2.866,6.398"/>
				<path fill="none" stroke="#000000" d="M11.375,39.375c1.438,0.438-0.348,1.978-0.602,3.079c-0.254,1.101,1.025,1.762,8.592,0.44" />
				<path fill="none" stroke="#000000" d="M12.625,43.667c-1.375,3-3.833,0.542-4.333,0.667"/>
				<path fill="none" stroke="#000000" d="M46.667,51.542c0,0-43.25-16.25-10.75,1.625"/>
				<path fill="none" stroke="#000000" d="M19.5,49.375c0,0-0.292-7.458,5.208-4.458"/>
				<path fill="none" stroke="#000000" d="M33.167,44.042c-0.125,0.5-0.875,1-0.25,2.75"/>
			</g>
		</g>
	</g>
</svg>
